<?xml version="1.0" standalone="no"?>
<!DOCTYPE svg PUBLIC "-//W3C//DTD SVG 20010904//EN"
 "http://www.w3.org/TR/2001/REC-SVG-20010904/DTD/svg10.dtd">
<svg version="1.0" xmlns="http://www.w3.org/2000/svg"
 width="500.000000pt" height="500.000000pt" viewBox="0 0 500.000000 500.000000"
 preserveAspectRatio="xMidYMid meet">

<g transform="translate(0.000000,500.000000) scale(0.100000,-0.100000)"
fill="#000000" stroke="none">
<path d="M2440 4030 c-654 -40 -1223 -378 -1449 -861 -54 -115 -80 -214 -90
-345 -5 -61 -14 -120 -20 -132 -18 -34 -62 -62 -97 -62 -48 0 -42 -16 8 -23
51 -7 86 -40 98 -93 5 -21 10 -276 10 -566 l0 -528 646 0 646 0 65 -52 c36
-29 69 -52 74 -50 5 1 8 -1 7 -5 -3 -9 103 -110 175 -167 l47 -38 83 32 c45
18 154 69 242 112 l160 79 7 -35 c4 -20 19 -54 33 -76 20 -32 31 -40 55 -40
17 0 39 5 50 12 15 10 26 9 53 -4 36 -17 53 -13 94 25 14 13 30 18 44 14 24
-7 57 7 76 32 15 20 17 41 3 41 -5 0 -10 -9 -10 -19 0 -22 -19 -39 -21 -19 -1
7 -1 16 0 20 0 4 -6 5 -15 1 -13 -5 -13 -8 2 -24 16 -18 16 -19 -12 -19 -22 0
-25 3 -14 10 12 8 9 15 -19 44 -30 31 -36 65 -8 50 8 -4 7 -2 -1 7 -7 8 -20
14 -30 14 -9 0 -16 5 -15 12 2 7 -7 17 -18 23 -12 7 -18 18 -15 26 3 8 1 14
-4 14 -17 0 -11 26 12 55 l22 28 -26 -17 c-25 -16 -26 -16 -32 10 -5 17 -3 30
5 34 8 6 8 9 -2 13 -9 4 -10 6 -2 6 7 1 17 -9 24 -20 7 -14 14 -18 18 -11 10
16 73 -97 66 -117 -3 -8 -3 -12 1 -8 4 4 17 -1 28 -10 20 -17 20 -17 7 2 -7
11 1 5 17 -14 17 -19 31 -37 30 -40 -2 -19 3 -31 11 -27 5 4 12 0 14 -6 4 -9
6 -8 6 2 1 8 15 23 31 32 17 10 36 30 43 45 l12 28 350 0 350 0 0 710 c0 647
-2 717 -18 794 -63 291 -230 539 -497 738 -361 270 -810 394 -1310 363z m290
-20 c288 -22 514 -81 744 -196 392 -195 654 -492 749 -849 20 -77 21 -105 24
-802 l4 -723 -345 0 -346 0 -6 28 c-4 15 -11 32 -16 39 -5 7 -18 28 -28 48
l-18 36 36 23 c72 46 298 184 380 232 106 62 142 92 171 144 l24 42 -47 -27
-46 -27 30 58 c17 31 29 59 26 61 -2 2 -26 -10 -52 -27 -52 -32 -118 -56 -247
-86 -53 -12 -74 -21 -67 -28 7 -7 16 -7 29 1 24 15 131 43 163 43 21 0 67 19
108 45 21 13 40 15 40 4 0 -5 -19 -29 -42 -53 -32 -33 -53 -46 -83 -50 -22 -4
-62 -11 -88 -16 -27 -6 -58 -10 -70 -10 -18 0 -19 2 -7 10 20 13 -4 14 -28 1
-36 -19 -118 -28 -137 -15 -15 11 -14 13 13 12 16 -1 35 3 43 8 8 5 23 7 34 5
15 -2 17 0 9 9 -9 9 -28 8 -78 -5 l-66 -17 -38 33 c-20 18 -84 76 -142 130
-106 98 -160 144 -160 136 0 -3 45 -44 100 -92 55 -47 98 -91 94 -96 -3 -5 0
-8 7 -7 16 4 19 -24 5 -34 -6 -4 -19 1 -30 10 -11 9 -16 11 -12 5 4 -8 2 -13
-5 -13 -8 0 -7 -5 2 -17 11 -13 8 -13 -12 2 -15 12 -22 23 -17 26 6 4 7 12 3
19 -5 8 -11 8 -17 2 -12 -12 -38 -5 -38 10 0 6 7 5 18 -2 9 -7 -3 6 -26 29
-24 22 -47 41 -50 41 -4 -1 9 -14 28 -30 19 -17 28 -30 20 -30 -7 0 -22 8 -33
18 -11 9 -17 11 -13 5 10 -18 -4 -16 -28 5 -21 17 -21 17 -2 -5 30 -36 4 -27
-32 10 -18 18 -29 37 -25 42 5 4 3 5 -3 2 -15 -9 -66 32 -58 45 4 6 2 8 -3 5
-6 -4 -14 0 -17 9 -3 8 -10 13 -15 10 -5 -3 -16 6 -25 19 -9 14 -21 23 -26 20
-6 -4 -10 -2 -10 3 0 5 -10 12 -21 15 -27 7 -25 5 85 -82 79 -63 90 -76 64
-72 -5 0 -8 -5 -8 -12 0 -8 7 -14 14 -14 8 0 14 3 13 6 -1 3 0 8 3 11 7 6 151
-122 145 -129 -10 -10 37 -49 53 -44 9 4 13 2 9 -4 -4 -6 1 -17 11 -24 15 -13
16 -12 3 4 -23 29 3 19 48 -19 23 -20 44 -34 47 -32 2 3 -37 37 -88 76 -94 71
-172 144 -133 124 11 -5 25 -10 30 -11 6 -1 10 -6 10 -11 0 -14 27 -30 37 -24
5 3 7 1 6 -5 -3 -11 150 -141 165 -141 9 0 -28 56 -44 65 -5 4 -7 10 -4 15 3
4 -3 14 -13 21 -15 13 -16 12 -3 -3 16 -22 5 -24 -15 -3 -10 10 -11 15 -3 15
8 0 8 5 -2 17 -12 15 -12 16 1 8 28 -15 59 -48 55 -56 -3 -4 -1 -10 4 -13 17
-11 5 24 -17 47 -32 33 -14 43 20 10 20 -19 25 -30 17 -39 -7 -9 -4 -16 12
-28 12 -8 26 -13 31 -10 17 10 3 -20 -17 -38 -12 -10 -15 -17 -7 -18 6 0 12
-5 12 -10 0 -7 -7 -7 -21 0 -24 13 -38 5 -21 -12 29 -29 8 -26 -32 4 -24 18
-42 36 -40 39 2 3 -3 6 -11 6 -10 0 -12 -4 -5 -12 5 -7 6 -16 2 -20 -4 -5 -2
-6 3 -3 6 3 16 0 23 -8 30 -33 -31 -12 -95 32 -65 44 -94 67 -64 49 10 -6 12
-4 7 4 -6 9 -11 9 -24 -1 -13 -11 -15 -10 -9 4 3 10 1 20 -5 24 -7 4 -8 3 -4
-4 4 -7 3 -12 -1 -12 -11 0 -56 31 -65 44 -4 6 -8 7 -8 3 0 -11 -77 44 -128
92 -24 22 -49 44 -55 48 -7 5 -17 17 -24 28 -6 11 -15 19 -20 18 -6 -1 -32 21
-59 50 l-49 52 47 -44 c40 -38 78 -60 78 -46 0 3 -23 25 -50 51 -42 40 -48 49
-35 57 11 6 25 0 51 -23 19 -17 39 -28 44 -25 19 12 3 50 -30 73 -18 12 -29
22 -25 22 5 0 -2 11 -15 25 -36 38 -15 30 53 -21 35 -25 49 -32 32 -16 -16 16
-31 35 -33 43 -2 8 -2 12 1 9 2 -3 32 -37 65 -77 40 -46 68 -70 79 -68 10 1
25 -3 33 -9 21 -15 -17 29 -65 76 -22 22 -33 36 -25 32 8 -4 3 4 -11 18 -42
39 -89 56 -89 32 0 -13 -5 -12 -29 2 -17 10 -27 23 -24 31 3 7 1 13 -4 13 -17
0 -23 -13 -12 -27 6 -7 8 -13 4 -13 -5 0 0 -10 11 -22 18 -21 18 -21 0 -15
-15 6 -18 3 -14 -18 3 -13 1 -22 -3 -19 -4 2 -13 -5 -19 -16 -9 -17 -14 -19
-25 -10 -11 9 -23 3 -54 -25 -23 -21 -38 -42 -34 -48 3 -5 1 -7 -5 -3 -5 3
-23 -4 -39 -17 -39 -33 -264 -192 -288 -204 -12 -7 -29 -7 -44 -2 -20 8 -22
11 -10 26 8 9 45 36 84 61 80 52 160 126 287 267 65 72 53 61 -45 -40 -151
-156 -137 -150 -258 -119 -31 8 -76 14 -100 14 -24 1 -55 7 -69 15 -37 21 -97
18 -175 -11 -138 -50 -165 -56 -240 -51 -39 2 -76 6 -81 9 -5 3 -28 9 -52 13
-31 5 -46 13 -52 28 -18 49 -93 94 -174 107 -156 25 -237 50 -350 107 -64 33
-114 57 -111 55 3 -3 0 -11 -7 -19 -9 -12 -7 -13 13 -8 17 4 30 1 38 -9 8 -9
19 -16 27 -16 7 0 42 -16 78 -35 78 -43 163 -69 287 -86 69 -9 87 -15 69 -20
-24 -7 -24 -7 5 -8 l30 -2 -25 -20 c-17 -15 -33 -19 -55 -15 -16 3 -37 1 -45
-4 -12 -8 -10 -10 10 -10 21 0 19 -3 -18 -21 -23 -12 -51 -32 -61 -45 -10 -13
-23 -24 -28 -24 -6 0 -18 -18 -28 -40 -10 -21 -23 -38 -29 -37 -6 1 -12 -5
-12 -13 -1 -8 -2 -20 -3 -27 -1 -7 -9 -10 -18 -7 -14 5 -15 4 -4 -4 10 -7 11
-14 2 -28 -7 -13 -10 -14 -11 -5 0 22 -10 7 -16 -24 -3 -15 -1 -24 5 -21 5 3
7 -3 4 -15 -3 -11 -9 -17 -12 -12 -3 5 -14 12 -24 16 -15 6 -16 10 -6 29 22
41 28 86 12 92 -8 3 -11 11 -7 17 5 8 3 9 -5 4 -9 -5 -10 -10 -2 -18 18 -18
13 -27 -14 -25 -26 2 -44 28 -20 28 8 0 15 5 15 10 0 6 -13 4 -30 -5 -35 -18
-43 -19 -34 -2 6 10 -87 -72 -121 -107 -22 -22 32 20 67 53 l37 34 -5 -35 c-5
-29 -2 -38 17 -52 l23 -16 -29 0 c-21 0 -26 3 -16 9 8 5 9 11 3 15 -5 3 -19
-3 -31 -13 -13 -12 -30 -16 -47 -13 -19 3 -25 1 -20 -7 4 -6 16 -11 27 -11 11
0 18 -4 15 -9 -3 -5 -16 -7 -29 -5 -16 3 -14 0 8 -10 l30 -15 -30 2 c-29 2
-30 4 -32 52 -1 27 4 56 10 64 10 12 9 13 -1 7 -10 -6 -13 0 -10 25 3 34 50
93 64 80 4 -3 4 -1 1 6 -4 6 -2 13 5 15 8 3 6 7 -5 11 -10 4 -16 2 -14 -5 1
-6 -4 -13 -12 -16 -9 -3 -11 0 -6 8 5 9 4 11 -4 6 -6 -4 -9 -12 -6 -17 4 -5 0
-9 -7 -9 -10 0 -9 -3 2 -11 13 -9 13 -10 0 -6 -28 7 -24 57 7 91 l28 31 -27
-24 -28 -24 0 206 0 207 28 30 c19 23 39 33 70 37 23 3 42 9 42 13 0 4 -19 10
-42 13 -31 4 -51 14 -70 37 -26 28 -28 37 -28 111 0 398 299 801 766 1033 218
108 514 184 774 199 118 7 139 7 270 -3z m161 -1727 c13 -16 12 -17 -3 -4 -17
13 -22 21 -14 21 2 0 10 -8 17 -17z m159 -38 c16 -17 17 -22 5 -22 -8 0 -24
10 -35 22 -16 17 -17 22 -5 22 8 0 24 -10 35 -22z m-1487 -31 c16 -9 14 -11
-12 -11 -18 0 -28 4 -24 10 4 6 -1 8 -11 4 -10 -4 -15 -3 -11 3 7 11 32 9 58
-6z m-111 -27 c-12 -7 -19 -17 -15 -22 4 -4 2 -5 -5 -1 -18 11 -85 -33 -78
-51 3 -8 2 -12 -3 -9 -21 13 -85 -103 -76 -137 5 -18 4 -19 -5 -7 -10 12 -11
11 -7 -7 3 -13 3 -23 1 -23 -3 0 -8 10 -13 23 -8 20 -9 19 -16 -16 -7 -37 -25
-61 -25 -34 0 23 49 127 60 127 5 0 10 7 10 15 0 25 91 116 135 136 46 20 71
24 37 6z m708 9 c0 -3 -4 -8 -10 -11 -5 -3 -10 -1 -10 4 0 6 5 11 10 11 6 0
10 -2 10 -4z m-51 -18 c11 -10 13 -10 7 0 -8 13 6 17 18 5 4 -5 17 -8 29 -8
12 -1 42 -4 67 -8 25 -4 61 -8 80 -11 59 -7 88 -17 95 -34 3 -9 3 -13 -1 -9
-4 4 -12 -1 -19 -10 -14 -18 -58 -27 -48 -9 4 6 0 5 -8 -1 -11 -9 -19 -9 -26
-2 -7 7 -14 4 -24 -8 -13 -17 -13 -17 6 -3 19 14 19 14 6 -3 -9 -12 -17 -14
-26 -7 -6 5 -15 7 -18 3 -4 -3 -13 0 -22 7 -8 7 -15 9 -15 5 0 -5 -8 -1 -18 8
-15 14 -19 15 -19 2 0 -8 4 -12 8 -9 4 2 10 0 14 -6 4 -6 11 -7 17 -4 7 4 8 2
4 -4 -4 -6 -13 -9 -21 -5 -8 3 -15 0 -15 -6 0 -6 5 -11 11 -11 5 0 8 -4 5 -9
-3 -5 4 -11 15 -14 14 -4 18 -10 13 -19 -4 -7 -4 -10 0 -6 10 8 36 -14 29 -24
-4 -7 15 -12 44 -11 7 1 10 -4 6 -10 -4 -6 0 -8 9 -5 8 4 34 -5 58 -18 23 -13
48 -24 56 -24 8 0 14 -4 14 -10 0 -5 -6 -7 -14 -4 -9 3 -22 -5 -32 -21 -13
-20 -19 -23 -26 -13 -6 9 -7 6 -3 -10 6 -21 4 -22 -31 -16 -21 3 -43 13 -50
21 -8 11 -13 13 -18 5 -5 -9 -12 -9 -26 0 -10 7 -17 15 -14 19 2 4 -8 9 -21
12 -19 3 -30 -2 -45 -23 -19 -27 -19 -27 3 -37 12 -6 30 -9 40 -7 9 1 17 -2
17 -6 0 -5 11 -7 24 -4 26 4 52 -19 40 -37 -5 -8 -3 -9 7 -3 24 15 38 13 31
-4 -4 -12 -7 -13 -10 -2 -3 9 -9 5 -18 -11 -7 -13 -13 -18 -14 -11 0 6 -9 12
-21 12 -11 0 -18 4 -14 9 3 6 -4 8 -15 6 -11 -2 -20 2 -20 8 0 7 -4 6 -10 -3
-15 -24 -12 -32 10 -20 11 6 20 7 20 2 0 -16 -41 -22 -46 -7 -3 7 -14 12 -25
10 -11 -2 -17 0 -14 6 4 5 -1 12 -9 15 -9 3 -13 11 -9 17 3 6 1 7 -6 3 -6 -4
-9 -12 -6 -17 4 -5 -8 -9 -25 -9 -18 0 -29 -4 -25 -10 3 -6 18 -8 33 -5 24 5
25 4 5 -4 -31 -14 -62 -3 -56 20 3 11 0 19 -7 19 -7 0 -10 -7 -6 -16 5 -12 1
-14 -17 -9 -21 6 -21 5 2 -8 18 -11 21 -16 10 -21 -8 -3 -4 -4 8 -2 13 2 34
-7 56 -25 21 -18 43 -27 56 -24 15 3 19 0 14 -8 -5 -9 -3 -9 9 0 8 7 18 10 21
6 4 -3 19 -7 34 -8 18 -1 27 -7 25 -15 -3 -11 0 -11 12 -1 12 10 16 9 25 -6 9
-17 10 -17 17 0 5 15 9 16 15 5 13 -20 11 -31 -6 -25 -8 4 -17 2 -21 -4 -4 -6
-11 -6 -20 1 -7 7 -19 10 -26 8 -7 -3 -20 4 -29 15 -12 16 -18 17 -24 7 -5 -8
-4 -11 3 -6 6 3 13 2 16 -2 4 -7 -44 -9 -51 -2 -2 1 -7 3 -13 4 -5 0 -18 9
-29 18 -11 9 -22 14 -24 10 -2 -4 -2 -1 0 7 3 11 1 11 -12 1 -8 -7 -12 -16 -9
-21 3 -5 -15 -8 -40 -7 -39 3 -45 6 -40 21 5 15 1 17 -22 11 -19 -5 -25 -4
-20 4 5 8 1 10 -10 5 -11 -4 -15 -3 -10 5 3 6 2 13 -4 17 -9 6 -14 -7 -11 -27
2 -14 -17 -8 -23 7 -3 8 -2 15 3 15 4 0 8 6 8 13 0 7 -8 13 -17 13 -17 0 -21
-18 -7 -32 4 -4 7 -15 7 -25 0 -12 5 -16 14 -13 8 3 19 -4 26 -16 7 -12 18
-19 26 -16 8 3 14 1 14 -4 0 -9 57 -25 77 -22 6 2 14 -2 18 -8 3 -5 0 -10 -7
-10 -7 0 -24 -3 -37 -7 -16 -4 -22 -2 -18 4 7 11 -25 26 -55 26 -9 0 -16 2
-15 6 1 3 -1 6 -4 6 -4 0 -15 7 -25 16 -11 9 -27 15 -36 14 -10 -2 -16 0 -15
3 1 4 -2 8 -6 9 -5 0 -21 13 -36 27 -15 15 -31 23 -35 19 -4 -4 -4 0 -1 9 4 9
2 19 -4 23 -6 3 -11 11 -11 16 0 6 4 8 9 4 6 -3 8 6 5 21 -5 25 -3 26 12 13
12 -9 15 -10 10 -1 -4 6 -5 12 -2 12 2 0 13 3 23 7 15 6 16 4 5 -9 -10 -13 -9
-18 5 -29 16 -13 17 -12 5 3 -8 10 -9 19 -3 22 12 8 42 -4 36 -14 -3 -5 0 -12
6 -16 8 -4 9 -3 5 4 -4 7 -3 12 3 12 5 0 12 -4 15 -9 3 -5 15 -11 26 -14 11
-3 18 -1 14 4 -3 5 -1 9 4 9 5 0 9 7 9 15 0 8 -4 12 -8 9 -4 -2 -11 0 -14 6
-5 8 -11 7 -21 -1 -11 -9 -14 -9 -14 0 0 8 -8 10 -21 6 -16 -5 -19 -4 -14 5 5
8 4 11 -3 7 -18 -12 -44 4 -39 24 3 12 0 16 -9 12 -8 -3 -12 -9 -9 -13 3 -4
-3 -7 -13 -6 -11 1 -16 -5 -14 -18 2 -12 -1 -16 -9 -10 -8 5 -10 3 -4 -6 5 -9
4 -11 -3 -6 -8 5 -8 15 -2 32 7 19 7 23 -2 18 -8 -5 -9 -1 -5 12 7 18 7 18 -8
0 -8 -11 -15 -16 -15 -11 0 5 -6 1 -13 -10 -10 -13 -16 -15 -21 -6 -4 6 -12 9
-17 6 -5 -3 -6 0 -3 8 3 8 1 18 -5 22 -7 3 -8 0 -5 -9 4 -11 0 -14 -15 -11
-15 3 -18 0 -14 -12 4 -11 2 -14 -5 -9 -8 5 -10 2 -6 -8 3 -9 10 -13 15 -10 5
3 6 -1 3 -9 -3 -8 2 -14 11 -14 10 0 14 6 9 16 -14 37 -13 44 2 14 20 -37 41
-46 24 -10 -11 21 -10 21 4 3 9 -11 16 -16 16 -12 0 4 6 4 13 -1 6 -4 17 -8
22 -9 6 0 16 -2 23 -2 9 -2 8 -9 -5 -29 -10 -15 -13 -24 -6 -20 6 4 14 3 17
-1 3 -5 -7 -8 -22 -7 -17 1 -26 7 -24 15 2 10 0 11 -11 2 -11 -9 -19 -6 -36
14 -19 21 -25 24 -32 13 -5 -8 -9 -9 -9 -3 0 7 -15 10 -42 7 -34 -3 -39 -2
-25 7 9 6 15 16 11 21 -4 6 -14 3 -26 -8 -16 -13 -22 -15 -25 -5 -4 10 -8 10
-21 0 -14 -12 -14 -11 -2 9 13 20 15 20 27 5 13 -15 13 -15 4 4 -6 12 -7 25
-3 30 4 5 -2 1 -14 -9 -11 -9 -23 -14 -27 -11 -8 9 4 35 13 29 16 -10 19 12 5
31 -14 17 -14 17 -9 1 4 -12 2 -17 -7 -15 -8 2 -13 -3 -11 -9 1 -7 -3 -13 -8
-13 -7 0 -7 -6 0 -19 7 -15 7 -19 -5 -17 -8 1 -18 6 -22 11 -4 4 -2 5 6 0 9
-5 12 -3 9 6 -3 8 -10 15 -16 15 -7 1 -14 3 -17 4 -3 1 -9 3 -14 4 -5 0 -13 5
-18 10 -5 5 -2 6 6 1 15 -8 13 6 -5 49 -5 14 -4 17 4 12 8 -5 10 -2 6 8 -3 9
-10 14 -14 11 -15 -9 2 59 17 71 10 7 13 16 8 24 -5 9 -4 11 3 6 8 -5 12 1 12
14 0 14 -4 19 -12 14 -10 -6 -10 -4 0 7 6 7 12 17 12 22 0 4 -6 5 -12 1 -10
-5 -10 -3 0 7 7 8 17 15 22 15 6 1 11 2 13 4 8 7 75 4 86 -5 11 -7 13 -7 7 3
-9 15 10 16 50 3 29 -10 93 -21 149 -26 17 -2 32 -4 35 -5 3 -1 9 -2 14 -1 4
1 14 -4 22 -10 8 -6 14 -8 14 -4 0 4 6 2 14 -4 10 -8 16 -9 21 -2 3 6 15 16
27 22 16 8 19 8 13 -1 -4 -7 4 -4 19 5 14 10 26 14 26 11 0 -4 10 0 23 9 13 8
27 12 30 8 4 -3 7 -2 7 4 0 5 6 10 13 11 41 3 57 7 57 14 0 12 14 10 29 -4z
m351 -63 c-24 -25 -43 -25 -34 0 5 12 21 20 48 24 5 0 -1 -10 -14 -24z m-1110
-44 c0 -6 -14 -25 -30 -43 l-31 -33 15 35 c8 19 20 34 26 33 5 -2 10 2 10 7 0
6 2 10 5 10 3 0 5 -4 5 -9z m990 -29 c0 -11 -44 -52 -56 -52 -18 0 -46 47 -31
53 17 7 87 6 87 -1z m-1250 -72 c0 -5 -5 -10 -11 -10 -5 0 -7 5 -4 10 3 6 8
10 11 10 2 0 4 -4 4 -10z m2220 -25 c20 -24 6 -28 -15 -5 -10 11 -13 20 -8 20
6 0 16 -7 23 -15z m243 -25 c22 0 29 -16 7 -17 -10 -1 -28 10 -41 25 -19 21
-19 23 -3 9 11 -9 28 -17 37 -17z m-2435 -9 c-6 -10 -18 -17 -25 -14 -20 8
-15 21 10 26 12 2 23 5 25 6 1 0 -3 -8 -10 -18z m1393 -16 c29 -12 32 -21 6
-16 -5 1 -6 -3 -2 -9 3 -5 -5 -14 -18 -19 -14 -6 -27 -13 -29 -18 -3 -4 -3 -3
-2 4 2 7 -6 15 -16 18 -18 6 -19 8 -4 31 19 28 21 29 65 9z m-1441 -15 c21 -7
19 -8 -12 -6 -21 1 -41 6 -45 9 -9 9 26 7 57 -3z m1495 0 c-3 -5 0 -7 8 -4 17
6 31 -11 22 -26 -4 -6 -15 -6 -31 0 -21 8 -26 6 -34 -15 -5 -14 -14 -25 -20
-25 -11 0 3 31 29 63 15 18 37 24 26 7z m-1338 -32 c-3 -7 -5 -2 -5 12 0 14 2
19 5 13 2 -7 2 -19 0 -25z m2331 -3 c-6 -14 -13 -23 -15 -21 -5 5 15 46 22 46
3 0 -1 -11 -7 -25z m-1748 0 c0 -11 -29 -11 -33 -1 -4 10 1 12 14 9 10 -3 19
-7 19 -8z m507 -21 c-3 -3 -12 -4 -19 -1 -8 3 -5 6 6 6 11 1 17 -2 13 -5z
m-699 -60 c61 -6 71 -11 156 -72 25 -18 76 -44 113 -58 69 -25 132 -68 167
-113 11 -13 40 -37 65 -52 l45 -29 -622 0 -622 0 0 139 0 139 40 -15 c32 -13
46 -14 68 -4 22 9 24 9 11 -1 -14 -11 -2 -18 86 -47 63 -21 112 -31 126 -28
24 6 133 96 126 103 -2 2 12 21 31 42 l35 39 58 -18 c31 -10 84 -21 117 -25z
m1012 33 c19 -16 22 -47 4 -40 -8 3 -14 10 -14 15 0 6 -8 4 -17 -3 -11 -10
-14 -10 -9 -1 4 6 3 12 -2 12 -6 0 -12 -7 -16 -15 -3 -8 -11 -15 -17 -15 -8 0
-7 5 2 18 12 15 12 15 -7 -1 -18 -15 -22 -16 -27 -3 -8 20 18 40 43 33 11 -3
23 -1 26 4 7 12 16 11 34 -4z m895 -17 c-20 -22 -67 -27 -83 -7 -8 9 -1 11 34
9 34 -3 45 0 50 12 4 9 9 14 12 11 3 -2 -3 -14 -13 -25z m-2558 4 c-3 -3 -12
-4 -19 -1 -8 3 -5 6 6 6 11 1 17 -2 13 -5z m1406 -9 c-3 -9 -8 -14 -10 -11 -3
3 -2 9 2 15 9 16 15 13 8 -4z m141 -29 c-3 -9 -11 -16 -17 -16 -7 0 -7 4 1 12
17 17 15 27 -5 23 -10 -2 -18 -4 -18 -5 0 -1 -8 -3 -17 -5 -11 -2 -15 2 -11
12 4 11 8 11 13 3 6 -9 9 -9 14 -1 4 6 12 9 17 6 5 -4 9 0 9 7 1 8 4 7 10 -4
6 -9 7 -23 4 -32z m-121 17 c-5 -12 -3 -14 8 -8 8 5 11 4 6 0 -4 -5 -14 -10
-22 -11 -12 -2 -12 2 -5 17 13 23 22 25 13 2z m1077 -26 c9 -4 5 -6 -9 -4 -13
1 -31 13 -39 27 l-16 25 24 -21 c14 -12 32 -24 40 -27z m-2411 12 c15 -1 20
-4 12 -9 -8 -4 3 -10 27 -14 28 -4 41 -12 45 -25 4 -19 3 -19 -17 -6 -33 22
-107 42 -148 41 -20 -1 -35 2 -32 5 2 4 -4 9 -13 12 -10 2 9 3 42 0 33 -2 71
-4 84 -4z m126 -29 c3 -6 -2 -8 -12 -5 -10 3 -8 0 5 -6 13 -7 22 -21 22 -36 0
-15 6 -23 18 -23 14 0 15 2 2 10 -8 5 -11 12 -7 17 5 4 12 1 17 -7 11 -19 -2
-33 -26 -28 -20 3 -57 65 -48 80 7 11 21 10 29 -2z m1290 0 c-3 -5 -14 -10
-23 -10 -15 0 -15 2 -2 10 20 13 33 13 25 0z m-523 -41 c-3 -10 2 -9 15 3 17
16 18 15 18 -7 0 -16 -4 -20 -11 -14 -6 5 -13 6 -17 3 -3 -3 -11 4 -17 16 -10
18 -9 21 2 17 7 -2 12 -11 10 -18z m472 -23 c-12 -9 -23 -11 -30 -5 -6 5 -13
6 -16 3 -3 -3 -9 -1 -12 4 -3 5 8 8 24 7 17 -1 33 2 36 7 3 5 9 7 12 4 3 -4
-3 -13 -14 -20z m-69 -6 c3 -5 1 -10 -4 -10 -6 0 -11 5 -11 10 0 6 2 10 4 10
3 0 8 -4 11 -10z m-179 -33 c25 2 43 0 41 -4 -3 -4 16 -7 41 -7 56 2 67 -3 52
-21 -8 -9 -20 -11 -41 -5 -16 5 -27 5 -24 0 3 -5 1 -11 -4 -14 -5 -3 -12 1
-15 10 -4 9 -9 14 -13 11 -3 -4 -14 -2 -24 3 -12 7 -20 7 -24 0 -5 -8 -12 -7
-23 2 -13 11 -15 11 -10 -4 9 -22 -21 -17 -34 7 -8 13 -7 16 1 11 6 -4 14 1
18 10 4 10 8 13 10 7 2 -6 22 -9 49 -6z m1291 -64 c12 8 24 -2 51 -40 24 -35
29 -58 10 -48 -7 4 -5 0 5 -8 18 -15 25 -63 7 -52 -5 3 -10 -1 -10 -11 0 -12
-5 -15 -22 -9 -13 3 -28 7 -35 7 -7 1 -10 5 -8 9 5 7 -24 23 -37 21 -13 -3 -9
16 5 21 6 3 2 6 -11 6 -13 1 -21 5 -18 10 8 12 -4 42 -14 36 -9 -6 -5 39 6 56
4 7 3 9 -4 6 -15 -10 -39 2 -39 19 0 9 8 14 21 12 14 -2 20 2 18 12 -2 8 12 0
31 -19 20 -18 39 -31 44 -28z m-277 -98 c-7 -8 -15 -13 -18 -10 -3 3 -11 0
-19 -6 -10 -9 -13 -6 -13 14 0 33 29 52 49 32 12 -12 12 -17 1 -30z m-73 -33
c7 -15 15 -52 18 -81 3 -29 11 -59 19 -67 14 -13 15 -68 3 -81 -3 -2 -21 12
-41 31 -19 20 -30 36 -23 36 7 0 6 4 -4 10 -10 6 -16 26 -18 55 -1 27 2 44 7
41 6 -3 15 1 22 9 11 13 10 14 -2 10 -11 -4 -13 2 -10 30 5 42 13 44 29 7z
m114 -17 c9 -24 12 -46 7 -47 -5 -2 3 -15 19 -28 l28 -25 -20 25 c-18 22 -18
23 -1 10 32 -25 68 -89 61 -111 -7 -22 -44 -46 -46 -29 -1 5 -2 14 -3 19 0 5
-5 13 -10 18 -5 5 -6 3 -2 -4 8 -15 -3 -17 -23 -4 -13 8 -13 12 0 28 12 16 12
17 -2 6 -13 -11 -19 -10 -33 6 -9 10 -18 28 -19 40 -1 11 -5 21 -10 21 -5 0
-7 6 -4 14 3 8 3 17 -1 20 -10 11 -11 36 -1 36 6 0 5 9 -1 21 -11 19 -10 20
10 9 12 -6 24 -9 28 -6 3 3 0 6 -6 6 -7 0 -12 5 -12 10 0 6 6 10 13 10 6 0 19
-20 28 -45z m-861 -90 c13 -14 21 -25 18 -25 -2 0 -15 11 -28 25 -13 14 -21
25 -18 25 2 0 15 -11 28 -25z m75 -73 c-3 -3 -11 0 -18 7 -9 10 -8 11 6 5 10
-3 15 -9 12 -12z"/>
<path d="M1690 3365 l0 -125 55 0 c41 0 55 4 55 14 0 10 -13 16 -37 18 l-38 3
-3 108 c-2 86 -6 107 -17 107 -12 0 -15 -22 -15 -125z"/>
<path d="M1840 3365 c0 -118 1 -125 20 -125 19 0 20 7 20 125 0 118 -1 125
-20 125 -19 0 -20 -7 -20 -125z"/>
<path d="M1930 3365 l0 -125 56 0 c54 0 92 12 106 34 14 21 8 66 -11 82 -17
15 -17 19 -4 45 27 53 -12 89 -96 89 l-51 0 0 -125z m101 85 c37 -20 10 -70
-37 -70 -21 0 -24 4 -24 40 0 34 3 40 21 40 11 0 29 -5 40 -10z m27 -128 c5
-33 -15 -52 -54 -52 -33 0 -34 1 -34 41 l0 40 43 -3 c35 -3 43 -7 45 -26z"/>
<path d="M2150 3366 c0 -105 2 -126 15 -126 11 0 15 12 15 45 0 40 2 45 23 45
17 0 28 -11 45 -45 15 -31 28 -45 42 -45 25 0 25 -2 -6 53 l-25 46 20 20 c28
28 28 82 1 106 -13 11 -41 20 -75 23 l-55 4 0 -126z m99 75 c25 -25 17 -59
-17 -72 -40 -15 -52 -5 -52 46 0 41 2 45 25 45 14 0 34 -9 44 -19z"/>
<path d="M2350 3365 l0 -125 60 0 c47 0 60 3 60 15 0 11 -11 15 -40 15 -40 0
-40 0 -40 39 0 36 3 40 28 43 16 2 27 9 27 18 0 9 -11 16 -27 18 -25 3 -28 8
-28 38 0 32 2 34 35 34 24 0 35 5 35 15 0 12 -13 15 -55 15 l-55 0 0 -125z"/>
<path d="M2510 3365 c0 -118 1 -125 20 -125 17 0 20 7 20 45 0 38 3 45 20 45
14 0 27 -14 42 -45 17 -34 28 -45 46 -45 16 0 21 4 16 13 -4 6 -18 28 -30 49
-21 32 -22 38 -8 49 27 22 36 60 24 90 -13 31 -53 49 -111 49 l-39 0 0 -125z
m101 85 c21 -12 25 -52 6 -68 -6 -6 -24 -13 -40 -17 -27 -7 -27 -7 -27 44 0
45 2 51 21 51 11 0 29 -5 40 -10z"/>
<path d="M2720 3366 l0 -126 60 0 c46 0 60 3 60 14 0 10 -14 16 -42 18 -42 3
-43 4 -46 41 -3 35 -2 37 27 37 24 0 31 4 31 20 0 16 -7 20 -31 20 -28 0 -30
2 -27 33 3 29 6 32 41 35 56 5 41 26 -21 30 l-52 3 0 -125z"/>
<path d="M2907 3370 c-32 -66 -57 -123 -57 -125 0 -3 8 -5 18 -5 11 0 24 11
30 25 10 22 18 25 67 25 49 0 57 -3 67 -25 7 -16 19 -25 35 -25 22 0 21 5 -38
123 -34 67 -62 123 -64 125 -1 1 -27 -52 -58 -118z m78 4 c21 -51 20 -54 -20
-54 -19 0 -35 4 -35 10 0 10 32 80 37 80 1 0 10 -16 18 -36z"/>
<path d="M3110 3366 l0 -126 53 0 c93 0 137 43 137 135 0 35 -6 52 -28 76 -24
27 -36 32 -95 36 l-67 6 0 -127z m133 62 c17 -20 23 -81 11 -113 -8 -19 -55
-45 -84 -45 -19 0 -20 6 -20 96 l0 96 38 -6 c20 -4 45 -16 55 -28z"/>
<path d="M3364 3483 c-6 -5 -16 -18 -23 -30 -16 -32 1 -68 49 -98 49 -31 59
-51 36 -73 -14 -14 -21 -15 -48 -4 -25 9 -34 9 -39 0 -24 -39 85 -54 121 -18
23 23 26 59 8 82 -7 9 -32 28 -55 42 -24 14 -43 32 -43 40 0 24 27 38 61 31
26 -6 30 -4 27 12 -2 13 -13 19 -43 21 -22 1 -45 -1 -51 -5z"/>
<path d="M1602 3271 c-8 -4 -12 -19 -10 -32 4 -29 45 -34 61 -7 19 30 -19 60
-51 39z"/>
<path d="M3514 3266 c-11 -29 0 -51 26 -51 21 0 25 5 25 30 0 24 -5 31 -23 33
-13 2 -24 -3 -28 -12z"/>
<path d="M1932 2898 c-7 -7 -12 -19 -12 -28 0 -9 -5 -21 -11 -27 -8 -8 -8 -13
0 -17 6 -4 11 -25 11 -47 0 -21 5 -39 10 -39 6 0 10 18 10 40 0 28 5 43 16 47
15 5 15 7 0 15 -20 11 -21 37 -1 44 8 4 15 10 15 15 0 13 -24 11 -38 -3z"/>
<path d="M2517 2903 c-4 -3 -7 -42 -7 -85 0 -63 3 -78 15 -78 12 0 15 16 15
85 0 78 -5 96 -23 78z"/>
<path d="M2812 2898 c-7 -7 -12 -22 -12 -34 0 -12 -6 -25 -12 -27 -10 -4 -10
-6 0 -6 8 -1 12 -17 12 -46 0 -59 24 -62 26 -4 1 23 8 45 15 50 10 6 11 9 2 9
-7 0 -13 11 -13 25 0 16 6 25 15 25 8 0 15 5 15 10 0 14 -33 13 -48 -2z"/>
<path d="M2720 2866 c0 -14 -5 -26 -12 -26 -9 0 -9 -3 0 -12 7 -7 12 -29 12
-50 0 -26 5 -38 14 -38 9 0 13 12 12 40 -1 27 3 41 13 45 12 5 13 8 3 14 -8 4
-15 16 -16 26 -4 30 -26 30 -26 1z"/>
<path d="M1085 2857 c-6 -12 -21 -24 -35 -28 -21 -6 -22 -7 -4 -8 26 -1 44
-20 44 -45 0 -17 4 -15 20 12 11 17 28 32 37 33 12 0 8 4 -9 11 -16 5 -28 16
-28 23 0 24 -15 25 -25 2z"/>
<path d="M2018 2843 c-26 -4 -28 -8 -28 -54 0 -36 4 -49 15 -49 8 0 14 9 13
23 -2 44 2 57 17 57 8 0 15 7 15 15 0 8 -1 14 -2 14 -2 -1 -15 -4 -30 -6z"/>
<path d="M2092 2834 c-24 -17 -30 -62 -10 -82 14 -14 78 -16 78 -2 0 6 -13 10
-30 10 -16 0 -30 5 -30 10 0 6 16 10 35 10 28 0 35 4 35 19 0 22 -25 51 -43
51 -7 0 -23 -7 -35 -16z m46 -22 c2 -7 -7 -12 -23 -12 -24 0 -26 2 -15 15 14
17 31 16 38 -3z"/>
<path d="M2212 2834 c-24 -17 -30 -62 -10 -82 14 -14 78 -16 78 -2 0 6 -13 10
-30 10 -16 0 -30 5 -30 10 0 6 16 10 35 10 28 0 35 4 35 19 0 22 -25 51 -43
51 -7 0 -23 -7 -35 -16z m46 -22 c2 -7 -6 -12 -17 -12 -21 0 -27 11 -14 24 9
9 26 2 31 -12z"/>
<path d="M2397 2843 l-28 -4 3 -77 c3 -76 20 -106 26 -46 3 27 6 30 28 26 33
-6 54 14 54 54 0 31 -23 57 -47 53 -4 -1 -21 -4 -36 -6z m53 -28 c18 -22 3
-57 -23 -53 -37 5 -33 67 4 68 4 0 12 -7 19 -15z"/>
<path d="M2588 2839 c-21 -12 -24 -71 -5 -87 7 -6 32 -10 55 -9 l42 1 0 48 c0
39 -3 48 -17 48 -10 0 -27 2 -38 5 -11 3 -28 0 -37 -6z m52 -24 c19 -23 8 -50
-20 -50 -16 0 -26 6 -28 18 -4 18 14 47 28 47 4 0 13 -7 20 -15z"/>
<path d="M2892 2834 c-24 -17 -30 -62 -10 -82 20 -20 65 -14 82 10 21 30 20
44 -4 68 -24 24 -38 25 -68 4z m48 -19 c17 -20 8 -50 -14 -50 -27 0 -43 29
-27 49 17 20 25 20 41 1z"/>
<path d="M3028 2843 c-26 -4 -28 -8 -28 -54 0 -37 4 -49 15 -49 10 0 15 11 15
35 0 24 6 37 20 45 19 10 28 32 13 29 -5 -1 -20 -4 -35 -6z"/>
<path d="M3126 2841 c-3 -5 -15 -7 -26 -4 -18 5 -20 0 -20 -46 0 -39 4 -51 15
-51 10 0 15 10 15 34 0 35 21 63 40 51 5 -3 10 -24 10 -46 0 -21 5 -39 10 -39
6 0 10 15 10 34 0 35 21 63 40 51 5 -3 10 -24 10 -46 0 -24 5 -39 13 -39 8 0
11 15 9 50 -3 38 -8 51 -23 55 -11 4 -26 2 -32 -4 -8 -6 -18 -6 -27 -1 -19 12
-37 12 -44 1z"/>
<path d="M1660 2600 c0 -7 313 -10 920 -10 607 0 920 3 920 10 0 7 -313 10
-920 10 -607 0 -920 -3 -920 -10z"/>
<path d="M4102 2556 c-6 -14 -18 -26 -27 -26 -8 0 -15 -4 -15 -10 0 -5 7 -10
15 -10 8 0 21 -12 29 -27 15 -27 15 -27 16 -5 0 15 7 26 20 29 24 6 26 19 5
27 -9 3 -19 15 -23 27 -8 20 -8 20 -20 -5z"/>
<path d="M3911 2467 c-1 -51 -24 -102 -53 -121 -14 -9 -53 -19 -89 -23 l-64
-7 63 -8 c35 -4 75 -14 89 -23 31 -21 53 -72 54 -127 l1 -43 9 40 c28 127 42
141 158 155 58 6 60 8 21 9 -110 3 -151 33 -173 126 -14 55 -15 57 -16 22z"/>
<path d="M2858 2453 c7 -3 16 -2 19 1 4 3 -2 6 -13 5 -11 0 -14 -3 -6 -6z"/>
<path d="M2950 2419 c19 -12 53 -35 75 -52 26 -21 33 -24 21 -9 -21 24 -107
82 -122 82 -5 0 7 -10 26 -21z"/>
<path d="M2769 2374 c-7 -9 -14 -25 -16 -36 -3 -18 -1 -19 13 -7 12 10 13 14
4 17 -9 3 -5 11 11 23 13 10 19 19 13 19 -6 0 -18 -7 -25 -16z"/>
<path d="M3080 2327 c0 -2 26 -26 57 -53 31 -27 54 -44 50 -37 -9 14 -107 97
-107 90z"/>
<path d="M2683 2244 l-28 -25 33 22 c17 13 32 24 32 26 0 8 -11 1 -37 -23z"/>
<path d="M2900 2210 c49 -47 59 -60 40 -55 -24 6 -24 6 5 -20 40 -34 107 -79
123 -81 8 -1 22 -10 31 -18 10 -9 23 -16 29 -16 7 0 12 -4 12 -10 0 -5 9 -14
20 -20 40 -21 18 0 -82 81 -57 45 -134 109 -173 141 l-70 60 65 -62z m138
-120 c35 -33 26 -34 -16 -1 -51 40 -79 74 -37 44 17 -12 40 -31 53 -43z"/>
<path d="M2936 2222 c-2 -4 30 -35 72 -69 74 -59 104 -74 68 -34 -32 36 -135
111 -140 103z"/>
<path d="M3650 2200 c-13 -13 -13 -17 0 -30 13 -13 17 -13 30 0 13 13 13 17 0
30 -13 13 -17 13 -30 0z"/>
<path d="M1325 2184 c-34 -37 -49 -64 -35 -64 5 0 10 5 10 12 0 6 15 24 33 39
17 15 29 30 25 34 -4 4 -19 -6 -33 -21z"/>
<path d="M2609 2193 c-13 -16 -12 -17 4 -4 16 13 21 21 13 21 -2 0 -10 -8 -17
-17z"/>
<path d="M1034 2178 l-19 -23 23 19 c21 18 27 26 19 26 -2 0 -12 -10 -23 -22z"/>
<path d="M3202 2150 c12 -16 26 -30 32 -30 5 0 -3 14 -19 30 -16 17 -30 30
-32 30 -2 0 6 -13 19 -30z"/>
<path d="M989 2023 c-13 -16 -12 -17 4 -4 9 7 17 15 17 17 0 8 -8 3 -21 -13z"/>
<path d="M939 2018 c-7 -31 -6 -36 9 -31 11 5 13 3 7 -7 -5 -8 -4 -11 3 -7 13
9 9 40 -6 45 -7 2 -12 2 -13 0z"/>
<path d="M3815 1965 c-16 -8 -23 -14 -15 -14 8 0 26 6 40 14 32 18 15 18 -25
0z"/>
<path d="M3176 1948 c3 -5 10 -6 15 -3 13 9 11 12 -6 12 -8 0 -12 -4 -9 -9z"/>
<path d="M3466 1900 c5 -8 9 -18 9 -22 0 -5 4 -8 8 -9 18 -2 16 9 -5 27 -13
11 -18 13 -12 4z"/>
<path d="M3020 2256 c0 -2 8 -10 18 -17 15 -13 16 -12 3 4 -13 16 -21 21 -21
13z"/>
<path d="M1256 2005 c-3 -9 -6 -22 -5 -28 0 -7 5 -1 10 12 5 13 8 26 5 28 -2
2 -6 -3 -10 -12z"/>
<path d="M1461 2144 c4 -21 -2 -26 -18 -13 -15 12 -16 12 -8 -1 5 -8 8 -26 6
-40 -3 -30 15 -16 21 15 2 11 9 21 16 21 6 1 14 3 17 4 3 1 9 3 14 4 5 0 12 4
16 8 4 3 0 5 -9 4 -8 -1 -19 -5 -22 -9 -4 -4 -13 -2 -21 5 -8 6 -13 7 -12 2z"/>
<path d="M2180 2129 c0 -5 5 -7 10 -4 6 3 10 8 10 11 0 2 -4 4 -10 4 -5 0 -10
-5 -10 -11z"/>
<path d="M2071 1904 c0 -11 3 -14 6 -6 3 7 2 16 -1 19 -3 4 -6 -2 -5 -13z"/>
<path d="M1428 1882 c4 -10 7 -12 10 -4 2 7 9 9 15 5 7 -3 8 -2 4 2 -14 16
-36 14 -29 -3z"/>
<path d="M1535 1890 c-3 -5 -5 -10 -3 -11 27 -6 39 -5 45 4 3 7 3 9 -2 5 -4
-4 -14 -3 -21 3 -8 7 -14 7 -19 -1z"/>
<path d="M2109 1889 c-11 -7 -11 -9 -1 -9 7 0 11 -4 8 -9 -4 -5 2 -8 11 -7 9
2 18 7 20 13 5 15 -21 23 -38 12z"/>
<path d="M1686 1877 c3 -10 9 -15 12 -12 3 3 0 11 -7 18 -10 9 -11 8 -5 -6z"/>
<path d="M1574 1858 c-4 -7 -3 -8 4 -4 11 7 17 -6 13 -27 -1 -5 3 -6 9 -2 7 4
7 12 0 26 -12 22 -16 23 -26 7z"/>
<path d="M1692 1808 c-18 -18 -14 -24 16 -23 16 0 29 5 29 12 0 7 -3 11 -5 8
-3 -3 -10 0 -17 5 -7 6 -16 5 -23 -2z"/>
<path d="M1964 1802 c2 -9 9 -18 17 -20 11 -3 11 -1 -1 8 -12 10 -11 11 7 7
13 -3 26 0 30 6 3 7 3 9 -1 5 -5 -4 -18 -3 -31 2 -19 7 -23 6 -21 -8z"/>
<path d="M1816 1732 c-3 -5 1 -15 8 -21 11 -10 14 -9 12 3 -3 21 -13 29 -20
18z"/>
<path d="M1854 1716 c1 -9 7 -21 13 -27 9 -9 11 -7 9 5 -1 9 -7 21 -13 27 -9
9 -11 7 -9 -5z"/>
<path d="M2462 1888 c-18 -18 -15 -24 12 -24 14 0 22 4 20 8 -3 5 -10 5 -16 2
-7 -5 -9 -1 -5 9 8 20 5 21 -11 5z"/>
<path d="M2146 1598 c3 -5 10 -6 15 -3 13 9 11 12 -6 12 -8 0 -12 -4 -9 -9z"/>
<path d="M2290 1589 c0 -5 5 -7 10 -4 6 3 10 8 10 11 0 2 -4 4 -10 4 -5 0 -10
-5 -10 -11z"/>
<path d="M639 2509 c-14 -14 -14 -18 3 -39 10 -12 18 -17 18 -10 0 7 8 19 18
26 16 12 16 13 0 14 -9 0 -18 6 -20 13 -2 9 -7 8 -19 -4z"/>
<path d="M940 1335 l0 -65 45 0 c25 0 45 5 45 10 0 6 -13 10 -30 10 -20 0 -30
5 -30 15 0 9 9 15 25 15 16 0 25 6 25 15 0 9 -9 15 -25 15 -16 0 -25 6 -25 15
0 10 10 15 30 15 17 0 30 5 30 10 0 6 -20 10 -45 10 l-45 0 0 -65z"/>
<path d="M1054 1385 c-10 -24 4 -45 36 -56 16 -6 30 -17 30 -25 0 -17 -32 -18
-48 -2 -17 17 -28 2 -12 -17 16 -19 64 -20 80 0 18 22 3 53 -30 60 -17 4 -32
11 -36 16 -8 14 26 23 39 10 15 -15 27 -14 27 3 0 27 -76 37 -86 11z"/>
<path d="M1160 1390 c0 -5 9 -10 20 -10 18 0 20 -7 20 -55 0 -30 5 -55 10 -55
6 0 10 25 10 55 0 48 2 55 20 55 11 0 20 5 20 10 0 6 -22 10 -50 10 -27 0 -50
-4 -50 -10z"/>
<path d="M1280 1335 c0 -64 0 -65 28 -65 43 0 72 26 72 64 0 41 -26 66 -68 66
l-32 0 0 -65z m64 29 c9 -8 16 -22 16 -29 0 -18 -28 -45 -46 -45 -10 0 -14 13
-14 45 0 49 15 59 44 29z"/>
<path d="M3620 1290 c0 -6 113 -10 319 -10 203 0 322 4 326 10 4 7 -105 10
-319 10 -211 0 -326 -4 -326 -10z"/>
<path d="M942 1158 c-13 -13 -16 -38 -6 -38 4 0 12 7 19 17 13 17 45 12 45 -8
0 -6 -16 -26 -35 -45 -19 -18 -35 -37 -35 -43 0 -6 21 -11 50 -11 28 0 50 5
50 10 0 6 -14 10 -31 10 l-31 0 26 31 c39 46 30 89 -19 89 -12 0 -26 -5 -33
-12z"/>
<path d="M1060 1151 c-5 -11 -10 -34 -10 -51 0 -47 16 -70 50 -70 34 0 50 23
50 70 0 47 -16 70 -50 70 -19 0 -33 -7 -40 -19z m55 -51 c0 -50 -20 -65 -35
-26 -6 17 -6 35 0 52 15 39 35 24 35 -26z"/>
<path d="M1180 1151 c-13 -26 -13 -31 4 -31 8 0 16 7 20 15 3 8 12 15 21 15
26 0 16 -35 -20 -70 -19 -19 -35 -38 -35 -42 0 -4 23 -8 50 -8 28 0 50 5 50
10 0 6 -11 10 -25 10 -29 0 -32 12 -9 30 27 23 36 48 24 70 -14 27 -65 27 -80
1z"/>
<path d="M1306 1154 c-3 -9 -6 -26 -6 -39 0 -19 5 -23 31 -21 34 1 44 -10 29
-34 -7 -12 -12 -12 -34 0 -31 16 -43 9 -21 -14 19 -19 56 -21 73 -4 32 32 -1
98 -42 82 -12 -5 -15 -2 -10 10 4 10 18 16 35 16 16 0 29 5 29 10 0 17 -77 12
-84 -6z"/>
<path d="M3620 1150 c0 -6 113 -10 319 -10 203 0 322 4 326 10 4 7 -105 10
-319 10 -211 0 -326 -4 -326 -10z"/>
<path d="M1500 1030 c0 -7 467 -10 1380 -10 913 0 1380 3 1380 10 0 7 -467 10
-1380 10 -913 0 -1380 -3 -1380 -10z"/>
</g>
</svg>
